<svg xmlns="http://www.w3.org/2000/svg" width="14.245" height="13.687" viewBox="0 0 14.245 13.687">
  <g id="Groupe_54" data-name="Groupe 54" transform="translate(-632.323 -290.5)">
    <path id="star" d="M2.959,13.161a.7.7,0,0,1-.685-.859l.85-3.746L.241,6.026A.7.7,0,0,1,.639,4.8L4.455,4.45,5.964.919a.7.7,0,0,1,1.292,0L8.765,4.45l3.816.346a.7.7,0,0,1,.4,1.229L10.1,8.555l.85,3.746A.7.7,0,0,1,9.9,13.06L6.61,11.094,3.32,13.061a.7.7,0,0,1-.36.1ZM6.61,10.247a.7.7,0,0,1,.36.1L10.076,12.2l-.8-3.536A.7.7,0,0,1,9.5,7.983l2.723-2.388-3.6-.327a.7.7,0,0,1-.584-.426L6.61,1.51,5.186,4.842a.7.7,0,0,1-.582.424L1,5.594,3.724,7.982a.7.7,0,0,1,.223.685l-.8,3.536L6.25,10.346a.7.7,0,0,1,.36-.1ZM4.426,4.518h0Zm4.367,0h0Zm0,0" transform="translate(632.835 290.508)" fill="#5902FF)" stroke="#5902FF" stroke-linecap="square" stroke-linejoin="round" stroke-width="1"/>
    <path id="Tracé_36" data-name="Tracé 36" d="M682.531,1973.9l-1.989,3.28-3.368.811,1.869,4.562-.424,2.741,3.912-2.3Z" transform="translate(-43 -1682)" fill="#5902FF"/>
  </g>
</svg>
